<?xml version="1.0" encoding="UTF-8" standalone="no"?>
<!DOCTYPE svg PUBLIC "-//W3C//DTD SVG 1.1//EN"
 "http://www.w3.org/Graphics/SVG/1.1/DTD/svg11.dtd">
<!-- Generated by graphviz version 2.43.0 (0)
 -->
<!-- Title: parsed Pages: 1 -->
<svg width="310pt" height="203pt"
 viewBox="0.00 0.00 309.92 203.04" xmlns="http://www.w3.org/2000/svg" xmlns:xlink="http://www.w3.org/1999/xlink">
<g id="graph0" class="graph" transform="scale(1 1) rotate(0) translate(4 199.04)">
<title>parsed</title>
<polygon fill="white" stroke="transparent" points="-4,4 -4,-199.04 305.92,-199.04 305.92,4 -4,4"/>
<!-- どこで -->
<g id="node1" class="node">
<title>どこで</title>
<ellipse fill="none" stroke="black" cx="50.91" cy="-174.53" rx="41.02" ry="20.51"/>
<text text-anchor="middle" x="50.91" y="-173.83" font-family="Times,serif" font-size="14.00">どこで</text>
</g>
<!-- 生れたか -->
<g id="node2" class="node">
<title>生れたか</title>
<ellipse fill="none" stroke="black" cx="50.91" cy="-97.52" rx="50.82" ry="20.51"/>
<text text-anchor="middle" x="50.91" y="-96.82" font-family="Times,serif" font-size="14.00">生れたか</text>
</g>
<!-- どこで&#45;&gt;生れたか -->
<g id="edge1" class="edge">
<title>どこで&#45;&gt;生れたか</title>
<path fill="none" stroke="black" d="M50.91,-153.82C50.91,-145.98 50.91,-136.79 50.91,-128.18"/>
<polygon fill="black" stroke="black" points="54.41,-128.1 50.91,-118.1 47.41,-128.1 54.41,-128.1"/>
</g>
<!-- つかぬ -->
<g id="node3" class="node">
<title>つかぬ</title>
<ellipse fill="none" stroke="black" cx="160.91" cy="-20.51" rx="41.02" ry="20.51"/>
<text text-anchor="middle" x="160.91" y="-19.81" font-family="Times,serif" font-size="14.00">つかぬ</text>
</g>
<!-- 生れたか&#45;&gt;つかぬ -->
<g id="edge2" class="edge">
<title>生れたか&#45;&gt;つかぬ</title>
<path fill="none" stroke="black" d="M75.87,-79.5C91.63,-68.75 112.14,-54.76 129.07,-43.22"/>
<polygon fill="black" stroke="black" points="131.26,-45.96 137.55,-37.43 127.32,-40.18 131.26,-45.96"/>
</g>
<!-- とんと -->
<g id="node4" class="node">
<title>とんと</title>
<ellipse fill="none" stroke="black" cx="160.91" cy="-97.52" rx="41.02" ry="20.51"/>
<text text-anchor="middle" x="160.91" y="-96.82" font-family="Times,serif" font-size="14.00">とんと</text>
</g>
<!-- とんと&#45;&gt;つかぬ -->
<g id="edge3" class="edge">
<title>とんと&#45;&gt;つかぬ</title>
<path fill="none" stroke="black" d="M160.91,-76.81C160.91,-68.97 160.91,-59.78 160.91,-51.17"/>
<polygon fill="black" stroke="black" points="164.41,-51.08 160.91,-41.08 157.41,-51.08 164.41,-51.08"/>
</g>
<!-- 見当が -->
<g id="node5" class="node">
<title>見当が</title>
<ellipse fill="none" stroke="black" cx="260.91" cy="-97.52" rx="41.02" ry="20.51"/>
<text text-anchor="middle" x="260.91" y="-96.82" font-family="Times,serif" font-size="14.00">見当が</text>
</g>
<!-- 見当が&#45;&gt;つかぬ -->
<g id="edge4" class="edge">
<title>見当が&#45;&gt;つかぬ</title>
<path fill="none" stroke="black" d="M238.72,-79.87C224.74,-69.38 206.5,-55.7 191.2,-44.22"/>
<polygon fill="black" stroke="black" points="193.14,-41.31 183.04,-38.11 188.94,-46.91 193.14,-41.31"/>
</g>
</g>
</svg>
